<svg width="34" height="34" viewBox="0 0 34 34" fill="none" xmlns="http://www.w3.org/2000/svg">
<path fill-rule="evenodd" clip-rule="evenodd" d="M19.7804 3.62891C26.5773 4.88184 31.7284 10.6105 31.7284 17.4711V23.5332L31.7281 23.5357L32.9678 28.6055C32.9717 28.6227 32.9749 28.64 32.9768 28.6578C33.1073 29.876 32.6729 31.0602 31.7842 31.9068C31.0389 32.617 30.071 33 29.0596 33C28.8518 33 28.6421 32.984 28.4323 32.951C25.6174 32.5111 15.6542 31.2051 5.62799 32.866C4.38307 33.0736 3.14088 32.6984 2.2276 31.8381C1.33346 30.9963 0.894004 29.8135 1.02174 28.5934C1.0233 28.5756 1.02643 28.558 1.03072 28.5408L2.24303 23.5357L2.24299 23.5353L2.24273 23.5345C2.24259 23.5341 2.24244 23.5337 2.24244 23.5332V17.4711C2.24244 10.5692 7.45621 4.81377 14.3139 3.60776C14.3824 2.01873 15.4379 1 17.0467 1C18.6628 1 19.7205 2.02771 19.7804 3.62891ZM30.9284 22.9713V17.4711C30.9284 11.2997 26.4984 6.09758 20.5127 4.60359C23.2975 6.6571 25.2276 11.0615 25.2276 16.1531V21.7128C28.0939 22.1279 30.0419 22.6834 30.9284 22.9713ZM24.4276 21.6038C24.1443 21.5677 23.856 21.5326 23.5569 21.5C20.2172 21.1356 15.4027 20.9744 9.54322 21.7856V16.1531C9.54322 9.54648 12.8819 4.17148 16.9854 4.17148C21.0889 4.17148 24.4276 9.54648 24.4276 16.1531V21.6038ZM18.9731 3.5032C18.8422 1.97456 17.5989 1.8 17.0467 1.8C16.4963 1.8 15.2585 1.97283 15.1211 3.48816C15.7323 3.41404 16.3536 3.37148 16.9854 3.37148C17.6598 3.37148 18.3225 3.41892 18.9731 3.5032ZM3.04244 17.4711C3.04244 11.2997 7.47237 6.09758 13.4582 4.60359C10.6733 6.6571 8.74322 11.0615 8.74322 16.1531V21.9039C6.93243 22.1778 5.03165 22.54 3.04244 23.0227V17.4711ZM28.5557 32.1607C29.5413 32.3148 30.5155 32.0109 31.2323 31.3275C31.9331 30.66 32.2792 29.7285 32.1842 28.7687L30.9771 23.8332C29.4005 23.294 18.6736 19.9947 2.98683 23.8625L1.81471 28.7023C1.72213 29.6631 2.07174 30.5924 2.77604 31.2559C3.50611 31.9434 4.49791 32.242 5.49752 32.077C15.6409 30.3955 25.7112 31.7158 28.5557 32.1607Z" fill="black"/>
<path d="M19.7804 3.62891L19.4307 3.64199L19.4412 3.92226L19.717 3.97311L19.7804 3.62891ZM31.7284 23.5332L32.076 23.5739L32.0784 23.5536V23.5332H31.7284ZM31.7281 23.5357L31.3805 23.495L31.3731 23.5576L31.3881 23.6188L31.7281 23.5357ZM32.9678 28.6055L33.3092 28.5279L33.3078 28.5223L32.9678 28.6055ZM32.9768 28.6578L33.3248 28.6205L33.3247 28.6196L32.9768 28.6578ZM31.7842 31.9068L31.5428 31.6534L31.5428 31.6534L31.7842 31.9068ZM28.4323 32.951L28.4867 32.6052L28.4863 32.6052L28.4323 32.951ZM5.62799 32.866L5.57079 32.5207L5.57041 32.5208L5.62799 32.866ZM2.2276 31.8381L2.46759 31.5833L2.46751 31.5833L2.2276 31.8381ZM1.02174 28.5934L1.36988 28.6298L1.37039 28.624L1.02174 28.5934ZM1.03072 28.5408L1.37028 28.6257L1.37089 28.6232L1.03072 28.5408ZM2.24303 23.5357L2.58319 23.6181L2.5971 23.5607L2.59139 23.5019L2.24303 23.5357ZM2.24299 23.5353L2.59134 23.5015L2.58804 23.4674L2.5782 23.4347L2.24299 23.5353ZM2.24273 23.5345L2.57795 23.4338L2.57529 23.425L2.57216 23.4162L2.24273 23.5345ZM14.3139 3.60776L14.3745 3.95247L14.6515 3.90377L14.6636 3.62283L14.3139 3.60776ZM30.9284 22.9713L30.8203 23.3042L31.2784 23.4529V22.9713H30.9284ZM20.5127 4.60359L20.5974 4.26401L20.3049 4.88528L20.5127 4.60359ZM25.2276 21.7128H24.8776V22.0158L25.1774 22.0592L25.2276 21.7128ZM23.5569 21.5L23.5949 21.1521L23.5949 21.1521L23.5569 21.5ZM24.4276 21.6038L24.3834 21.951L24.7776 22.0012V21.6038H24.4276ZM9.54322 21.7856H9.19322V22.1874L9.59122 22.1323L9.54322 21.7856ZM18.9731 3.5032L18.9281 3.8503L19.3589 3.9061L19.3218 3.47335L18.9731 3.5032ZM15.1211 3.48816L14.7725 3.45655L14.7334 3.88774L15.1632 3.83561L15.1211 3.48816ZM13.4582 4.60359L13.6659 4.88528L13.3734 4.26401L13.4582 4.60359ZM8.74322 21.9039L8.79558 22.2499L9.09322 22.2049V21.9039H8.74322ZM3.04244 23.0227H2.69244V23.4677L3.12496 23.3628L3.04244 23.0227ZM31.2323 31.3275L30.9909 31.0741L30.9908 31.0742L31.2323 31.3275ZM28.5557 32.1607L28.5016 32.5065L28.5017 32.5065L28.5557 32.1607ZM32.1842 28.7687L32.5325 28.7343L32.5301 28.7097L32.5242 28.6856L32.1842 28.7687ZM30.9771 23.8332L31.317 23.7501L31.2715 23.564L31.0903 23.5021L30.9771 23.8332ZM2.98683 23.8625L2.90304 23.5227L2.69669 23.5736L2.64666 23.7801L2.98683 23.8625ZM1.81471 28.7023L1.47454 28.62L1.4687 28.6441L1.46632 28.6688L1.81471 28.7023ZM2.77604 31.2559L2.53604 31.5106L2.53609 31.5107L2.77604 31.2559ZM5.49752 32.077L5.55453 32.4223L5.55476 32.4222L5.49752 32.077ZM32.0784 17.4711C32.0784 10.4275 26.7923 4.56558 19.8439 3.28471L19.717 3.97311C26.3623 5.19809 31.3784 10.7936 31.3784 17.4711H32.0784ZM32.0784 23.5332V17.4711H31.3784V23.5332H32.0784ZM32.0757 23.5764L32.076 23.5739L31.3808 23.4925L31.3805 23.495L32.0757 23.5764ZM33.3078 28.5223L32.0681 23.4526L31.3881 23.6188L32.6279 28.6886L33.3078 28.5223ZM33.3247 28.6196C33.321 28.5862 33.3154 28.5555 33.3091 28.5279L32.6265 28.683C32.6281 28.6899 32.6287 28.6939 32.6289 28.696L33.3247 28.6196ZM32.0257 32.1602C32.993 31.2386 33.4669 29.947 33.3248 28.6205L32.6288 28.6951C32.7477 29.8049 32.3528 30.8817 31.5428 31.6534L32.0257 32.1602ZM29.0596 33.35C30.1607 33.35 31.2152 32.9325 32.0257 32.1602L31.5428 31.6534C30.8627 32.3015 29.9812 32.65 29.0596 32.65V33.35ZM28.3779 33.2967C28.6059 33.3326 28.8338 33.35 29.0596 33.35V32.65C28.8698 32.65 28.6782 32.6354 28.4867 32.6052L28.3779 33.2967ZM5.68519 33.2113C15.6558 31.5596 25.5751 32.8588 28.3783 33.2968L28.4863 32.6052C25.6598 32.1635 15.6525 30.8506 5.57079 32.5207L5.68519 33.2113ZM1.9876 32.0928C2.98112 33.0288 4.33362 33.4367 5.68556 33.2112L5.57041 32.5208C4.43252 32.7106 3.30064 32.3681 2.46759 31.5833L1.9876 32.0928ZM0.673641 28.5569C0.534522 29.8858 1.01407 31.1763 1.98768 32.0929L2.46751 31.5833C1.65285 30.8163 1.25349 29.7412 1.36984 28.6298L0.673641 28.5569ZM0.691173 28.4559C0.68297 28.4887 0.67644 28.5245 0.673083 28.5627L1.37039 28.624C1.37016 28.6266 1.36988 28.6273 1.37027 28.6257L0.691173 28.4559ZM1.90286 23.4533L0.690559 28.4584L1.37089 28.6232L2.58319 23.6181L1.90286 23.4533ZM1.89463 23.5692L1.89467 23.5696L2.59139 23.5019L2.59134 23.5015L1.89463 23.5692ZM1.90752 23.6351L1.90777 23.636L2.5782 23.4347L2.57795 23.4338L1.90752 23.6351ZM1.89244 23.5332C1.89244 23.5715 1.89872 23.6025 1.90392 23.6224C1.9065 23.6323 1.90901 23.6401 1.91062 23.6449C1.91144 23.6474 1.91214 23.6494 1.91257 23.6506C1.9128 23.6513 1.91298 23.6518 1.9131 23.6521C1.91321 23.6524 1.91331 23.6527 1.91331 23.6527L2.57216 23.4162C2.57129 23.4138 2.57663 23.428 2.58114 23.4453C2.58624 23.4648 2.59244 23.4953 2.59244 23.5332H1.89244ZM1.89244 17.4711V23.5332H2.59244V17.4711H1.89244ZM14.2533 3.26305C7.24279 4.49593 1.89244 10.3849 1.89244 17.4711H2.59244C2.59244 10.7534 7.66964 5.13161 14.3745 3.95247L14.2533 3.26305ZM17.0467 0.65C16.1669 0.65 15.4093 0.92995 14.8606 1.45517C14.312 1.98034 14.0017 2.72266 13.9643 3.5927L14.6636 3.62283C14.6946 2.90383 14.9462 2.34227 15.3447 1.96082C15.7431 1.57941 16.3177 1.35 17.0467 1.35V0.65ZM20.1302 3.61582C20.0974 2.73971 19.7892 1.99162 19.2401 1.46208C18.6909 0.932446 17.9305 0.65 17.0467 0.65V1.35C17.779 1.35 18.3555 1.58141 18.7542 1.96593C19.153 2.35055 19.4035 2.91691 19.4307 3.64199L20.1302 3.61582ZM30.5784 17.4711V22.9713H31.2784V17.4711H30.5784ZM20.4279 4.94317C26.2722 6.40185 30.5784 11.4748 30.5784 17.4711H31.2784C31.2784 11.1247 26.7247 5.79331 20.5974 4.26401L20.4279 4.94317ZM25.5776 16.1531C25.5776 10.9913 23.6231 6.46239 20.7204 4.32189L20.3049 4.88528C22.9718 6.85182 24.8776 11.1318 24.8776 16.1531H25.5776ZM25.5776 21.7128V16.1531H24.8776V21.7128H25.5776ZM31.0365 22.6384C30.1329 22.345 28.1655 21.7846 25.2778 21.3664L25.1774 22.0592C28.0223 22.4712 29.9508 23.0219 30.8203 23.3042L31.0365 22.6384ZM23.5189 21.8479C23.8152 21.8803 24.1013 21.9151 24.3834 21.951L24.4718 21.2566C24.1872 21.2204 23.8967 21.185 23.5949 21.1521L23.5189 21.8479ZM9.59122 22.1323C15.4187 21.3255 20.2041 21.4863 23.5189 21.8479L23.5949 21.1521C20.2304 20.785 15.3868 20.6233 9.49522 21.439L9.59122 22.1323ZM9.19322 16.1531V21.7856H9.89322V16.1531H9.19322ZM16.9854 3.82148C14.768 3.82148 12.8119 5.27243 11.4282 7.50014C10.0411 9.73334 9.19322 12.7949 9.19322 16.1531H9.89322C9.89322 12.9047 10.7147 9.97545 12.0228 7.86949C13.3343 5.75804 15.0993 4.52148 16.9854 4.52148V3.82148ZM24.7776 16.1531C24.7776 12.7949 23.9298 9.73334 22.5426 7.50014C21.1589 5.27243 19.2028 3.82148 16.9854 3.82148V4.52148C18.8715 4.52148 20.6365 5.75804 21.948 7.86949C23.2561 9.97545 24.0776 12.9047 24.0776 16.1531H24.7776ZM24.7776 21.6038V16.1531H24.0776V21.6038H24.7776ZM17.0467 2.15C17.2953 2.15 17.6712 2.1909 17.9895 2.37949C18.2862 2.55522 18.5684 2.87864 18.6244 3.53305L19.3218 3.47335C19.247 2.59912 18.8421 2.07094 18.3463 1.77723C17.8722 1.49638 17.3504 1.45 17.0467 1.45V2.15ZM15.4697 3.51977C15.5284 2.87229 15.8101 2.55185 16.1065 2.3775C16.4243 2.1905 16.7989 2.15 17.0467 2.15V1.45C16.7441 1.45 16.2245 1.49591 15.7515 1.77416C15.2571 2.06506 14.8512 2.5887 14.7725 3.45655L15.4697 3.51977ZM16.9854 3.02148C16.3378 3.02148 15.7024 3.0651 15.079 3.1407L15.1632 3.83561C15.7622 3.76298 16.3693 3.72148 16.9854 3.72148V3.02148ZM19.0181 3.1561C18.354 3.07008 17.6763 3.02148 16.9854 3.02148V3.72148C17.6434 3.72148 18.291 3.76776 18.9281 3.8503L19.0181 3.1561ZM13.3734 4.26401C7.24613 5.79331 2.69244 11.1247 2.69244 17.4711H3.39244C3.39244 11.4748 7.69861 6.40185 13.5429 4.94317L13.3734 4.26401ZM9.09322 16.1531C9.09322 11.1318 10.999 6.85182 13.6659 4.88528L13.2504 4.32189C10.3477 6.46239 8.39322 10.9913 8.39322 16.1531H9.09322ZM9.09322 21.9039V16.1531H8.39322V21.9039H9.09322ZM3.12496 23.3628C5.10347 22.8828 6.99414 22.5225 8.79558 22.2499L8.69087 21.5578C6.87072 21.8332 4.95983 22.1973 2.95992 22.6825L3.12496 23.3628ZM2.69244 17.4711V23.0227H3.39244V17.4711H2.69244ZM30.9908 31.0742C30.3532 31.682 29.4884 31.9523 28.6098 31.8149L28.5017 32.5065C29.5941 32.6774 30.6777 32.3398 31.4738 31.5809L30.9908 31.0742ZM31.8359 28.8032C31.9202 29.6554 31.6138 30.4807 30.9909 31.0741L31.4737 31.581C32.2523 30.8392 32.6381 29.8016 32.5325 28.7343L31.8359 28.8032ZM30.6371 23.9164L31.8443 28.8519L32.5242 28.6856L31.317 23.7501L30.6371 23.9164ZM3.07061 24.2023C18.6745 20.355 29.3309 23.6401 30.8638 24.1644L31.0903 23.5021C29.4701 22.9479 18.6727 19.6345 2.90304 23.5227L3.07061 24.2023ZM2.15487 28.7847L3.32699 23.9449L2.64666 23.7801L1.47454 28.62L2.15487 28.7847ZM3.01603 31.0011C2.39033 30.4117 2.08091 29.5887 2.16309 28.7359L1.46632 28.6688C1.36334 29.7374 1.75315 30.7731 2.53604 31.5106L3.01603 31.0011ZM5.44051 31.7316C4.54704 31.8791 3.66547 31.6127 3.01598 31.0011L2.53609 31.5107C3.34676 32.2741 4.44878 32.6048 5.55453 32.4223L5.44051 31.7316ZM28.6098 31.8149C25.7535 31.3682 15.6392 30.041 5.44028 31.7317L5.55476 32.4222C15.6426 30.75 25.6689 32.0635 28.5016 32.5065L28.6098 31.8149Z" fill="black"/>
<path fill-rule="evenodd" clip-rule="evenodd" d="M16.9043 8.60332C13.8879 8.60332 11.4336 11.0574 11.4336 14.074C11.4336 15.022 11.6766 15.9141 12.1025 16.6922C12.1037 16.6943 12.1042 16.6965 12.1047 16.6987C12.1052 16.701 12.1058 16.7033 12.107 16.7055C12.1097 16.71 12.113 16.7139 12.1163 16.7177C12.1189 16.7207 12.1215 16.7238 12.1238 16.7272C13.0592 18.4056 14.8504 19.5447 16.9043 19.5447C18.9592 19.5447 20.7513 18.4046 21.6862 16.7248L21.6895 16.7204L21.693 16.7162C21.6959 16.7129 21.6989 16.7095 21.7012 16.7055C21.7023 16.7035 21.7028 16.7015 21.7032 16.6995L21.7032 16.6994C21.7037 16.6975 21.7042 16.6955 21.7052 16.6937C22.1317 15.9152 22.375 15.0226 22.375 14.074C22.375 11.0574 19.9207 8.60332 16.9043 8.60332ZM21.575 14.074C21.575 14.7389 21.4332 15.3706 21.1816 15.9437L17.3043 13.7044V9.42358C19.6928 9.62756 21.575 11.6336 21.575 14.074ZM16.5043 13.7042V9.42358C14.1158 9.62756 12.2336 11.6336 12.2336 14.074C12.2336 14.7388 12.3754 15.3704 12.6269 15.9434L16.5043 13.7042ZM13.0097 16.6463L16.5043 14.6281V18.7245C15.0458 18.5999 13.7771 17.8043 13.0097 16.6463ZM17.3043 14.628V18.7245C18.7628 18.5999 20.0315 17.8043 20.7989 16.6463L17.3043 14.628Z" fill="black"/>
<path d="M12.1025 16.6922L12.4105 16.5259L12.4096 16.5242L12.1025 16.6922ZM12.1047 16.6987L11.764 16.7789L11.764 16.7789L12.1047 16.6987ZM12.107 16.7055L12.4105 16.531L12.4096 16.5296L12.107 16.7055ZM12.1163 16.7177L12.3811 16.4888L12.3811 16.4888L12.1163 16.7177ZM12.1238 16.7272L12.4296 16.5568L12.4224 16.5439L12.4142 16.5317L12.1238 16.7272ZM21.6862 16.7248L21.4051 16.5163L21.3915 16.5346L21.3804 16.5546L21.6862 16.7248ZM21.6895 16.7204L21.4221 16.4946L21.415 16.503L21.4085 16.5118L21.6895 16.7204ZM21.693 16.7162L21.428 16.4876L21.4256 16.4905L21.693 16.7162ZM21.7012 16.7055L22.0043 16.8804L22.0051 16.8791L21.7012 16.7055ZM21.7032 16.6995L21.3712 16.5888L21.3663 16.6035L21.3627 16.6186L21.7032 16.6995ZM21.7032 16.6994L22.0353 16.8101L22.0402 16.7954L22.0438 16.7802L21.7032 16.6994ZM21.7052 16.6937L21.3982 16.5255L21.3975 16.5269L21.7052 16.6937ZM21.1816 15.9437L21.0066 16.2468L21.3451 16.4423L21.5021 16.0843L21.1816 15.9437ZM17.3043 13.7044H16.9543V13.9064L17.1293 14.0075L17.3043 13.7044ZM17.3043 9.42358L17.3341 9.07485L16.9543 9.04242V9.42358H17.3043ZM16.5043 9.42358H16.8543V9.04242L16.4745 9.07485L16.5043 9.42358ZM16.5043 13.7042L16.6793 14.0073L16.8543 13.9062V13.7042H16.5043ZM12.6269 15.9434L12.3064 16.084L12.4634 16.4419L12.8019 16.2465L12.6269 15.9434ZM16.5043 14.6281H16.8543V14.0219L16.3293 14.3251L16.5043 14.6281ZM13.0097 16.6463L12.8346 16.3432L12.5123 16.5293L12.7179 16.8396L13.0097 16.6463ZM16.5043 18.7245L16.4745 19.0732L16.8543 19.1056V18.7245H16.5043ZM17.3043 18.7245H16.9543V19.1056L17.3341 19.0732L17.3043 18.7245ZM17.3043 14.628L17.4793 14.3249L16.9543 14.0217V14.628H17.3043ZM20.7989 16.6463L21.0907 16.8396L21.2963 16.5294L20.974 16.3432L20.7989 16.6463ZM11.7836 14.074C11.7836 11.2507 14.0812 8.95332 16.9043 8.95332V8.25332C13.6946 8.25332 11.0836 10.8641 11.0836 14.074H11.7836ZM12.4096 16.5242C12.0109 15.7959 11.7836 14.9615 11.7836 14.074H11.0836C11.0836 15.0825 11.3422 16.0322 11.7955 16.8603L12.4096 16.5242ZM12.4454 16.6184C12.4453 16.6184 12.4445 16.6149 12.4436 16.611C12.4425 16.6068 12.4407 16.6002 12.4383 16.5923C12.4334 16.5763 12.4249 16.5526 12.4105 16.5259L11.7946 16.8586C11.7813 16.8339 11.7736 16.8123 11.7694 16.7985C11.7656 16.7864 11.7633 16.7759 11.764 16.7789L12.4454 16.6184ZM12.4096 16.5296C12.4253 16.5566 12.4342 16.5806 12.4392 16.5962C12.4435 16.6099 12.4461 16.6217 12.4454 16.6184L11.764 16.7789C11.764 16.779 11.7649 16.7828 11.766 16.7871C11.7672 16.7919 11.7692 16.7992 11.772 16.8081C11.7777 16.826 11.7875 16.8522 11.8045 16.8814L12.4096 16.5296ZM12.3811 16.4888C12.3785 16.4858 12.3825 16.4903 12.387 16.4961C12.3923 16.5029 12.4012 16.5148 12.4105 16.531L11.8036 16.8799C11.8256 16.9182 11.8514 16.9465 11.8515 16.9466L12.3811 16.4888ZM12.4142 16.5317C12.3982 16.508 12.3815 16.4894 12.3811 16.4888L11.8515 16.9466C11.8534 16.9488 11.8512 16.9463 11.8486 16.943C11.8455 16.9393 11.8399 16.9322 11.8335 16.9226L12.4142 16.5317ZM16.9043 19.1947C14.9831 19.1947 13.306 18.1295 12.4296 16.5568L11.8181 16.8975C12.8124 18.6817 14.7177 19.8947 16.9043 19.8947V19.1947ZM21.3804 16.5546C20.5044 18.1285 18.8264 19.1947 16.9043 19.1947V19.8947C19.0919 19.8947 20.9982 18.6807 21.992 16.895L21.3804 16.5546ZM21.4085 16.5118L21.4051 16.5163L21.9673 16.9334L21.9706 16.9289L21.4085 16.5118ZM21.4256 16.4905L21.4221 16.4946L21.957 16.9461L21.9605 16.942L21.4256 16.4905ZM21.398 16.5305C21.4073 16.5144 21.4162 16.5025 21.4216 16.4955C21.4263 16.4895 21.4304 16.4849 21.428 16.4876L21.958 16.9449C21.9586 16.9442 21.9656 16.9362 21.9731 16.9266C21.9812 16.9162 21.9927 16.9005 22.0043 16.8804L21.398 16.5305ZM21.3627 16.6186C21.362 16.6217 21.3646 16.6101 21.3688 16.5968C21.3736 16.5815 21.3822 16.5582 21.3973 16.5318L22.0051 16.8791C22.0212 16.8508 22.0306 16.8255 22.0361 16.8083C22.0388 16.7997 22.0407 16.7927 22.0418 16.7881C22.0424 16.7858 22.0429 16.7839 22.0432 16.7826C22.0435 16.7815 22.0437 16.7804 22.0438 16.7803L21.3627 16.6186ZM21.3712 16.5888L21.3712 16.5888L22.0353 16.8101L22.0353 16.8101L21.3712 16.5888ZM21.3975 16.5269C21.3831 16.5535 21.3746 16.577 21.3697 16.5929C21.3673 16.6007 21.3655 16.6072 21.3645 16.6114C21.3635 16.6153 21.3627 16.6187 21.3627 16.6187L22.0438 16.7802C22.0445 16.7773 22.0421 16.7879 22.0383 16.8002C22.034 16.8141 22.0263 16.8357 22.0129 16.8604L21.3975 16.5269ZM22.025 14.074C22.025 14.962 21.7974 15.7969 21.3982 16.5255L22.0121 16.8618C22.466 16.0334 22.725 15.0832 22.725 14.074H22.025ZM16.9043 8.95332C19.7274 8.95332 22.025 11.2507 22.025 14.074H22.725C22.725 10.8641 20.114 8.25332 16.9043 8.25332V8.95332ZM21.5021 16.0843C21.7723 15.4687 21.925 14.7892 21.925 14.074H21.225C21.225 14.6886 21.094 15.2725 20.8611 15.803L21.5021 16.0843ZM17.1293 14.0075L21.0066 16.2468L21.3567 15.6406L17.4793 13.4013L17.1293 14.0075ZM16.9543 9.42358V13.7044H17.6543V9.42358H16.9543ZM21.925 14.074C21.925 11.4498 19.9016 9.29412 17.3341 9.07485L17.2745 9.77231C19.484 9.961 21.225 11.8175 21.225 14.074H21.925ZM16.1543 9.42358V13.7042H16.8543V9.42358H16.1543ZM12.5836 14.074C12.5836 11.8175 14.3246 9.961 16.5341 9.77231L16.4745 9.07485C13.907 9.29412 11.8836 11.4498 11.8836 14.074H12.5836ZM12.9474 15.8027C12.7146 15.2723 12.5836 14.6885 12.5836 14.074H11.8836C11.8836 14.7891 12.0362 15.4684 12.3064 16.084L12.9474 15.8027ZM16.3293 13.4011L12.4518 15.6403L12.8019 16.2465L16.6793 14.0073L16.3293 13.4011ZM16.3293 14.3251L12.8346 16.3432L13.1847 16.9494L16.6793 14.9312L16.3293 14.3251ZM16.8543 18.7245V14.6281H16.1543V18.7245H16.8543ZM12.7179 16.8396C13.5422 18.0835 14.9057 18.9392 16.4745 19.0732L16.5341 18.3757C15.1859 18.2606 14.0119 17.5251 13.3014 16.4529L12.7179 16.8396ZM17.6543 18.7245V14.628H16.9543V18.7245H17.6543ZM20.5072 16.4529C19.7967 17.5251 18.6227 18.2606 17.2745 18.3757L17.3341 19.0732C18.9029 18.9392 20.2664 18.0835 21.0907 16.8396L20.5072 16.4529ZM17.1293 14.9311L20.6239 16.9494L20.974 16.3432L17.4793 14.3249L17.1293 14.9311Z" fill="black"/>
</svg>
