<svg width="44" height="44" viewBox="0 0 44 44" fill="none" xmlns="http://www.w3.org/2000/svg">
<path fill-rule="evenodd" clip-rule="evenodd" d="M42.7319 34.5955L41.0464 31.6761L40.1908 27.4954C40.7497 26.4878 40.8202 25.2808 40.3824 24.215L38.6195 18.2652C38.3797 17.4716 37.7951 16.8283 37.0281 16.5135C36.312 16.2148 35.4985 16.2602 34.82 16.6369C34.8161 16.6369 34.8087 16.6418 34.8008 16.6469C34.796 16.6501 34.791 16.6533 34.7866 16.6557L33.5805 17.3525C33.3573 17.4804 33.1575 17.6453 32.9896 17.8402C32.1103 16.8556 30.6609 16.6229 29.5176 17.2828L28.9142 17.6312C28.521 17.856 28.2122 18.2032 28.0348 18.6199C27.9139 18.5681 27.7893 18.5253 27.6621 18.4917C26.948 18.2979 26.1861 18.3983 25.5467 18.7704L24.9433 19.1188C24.7374 19.2368 24.5536 19.3896 24.3998 19.5703L20.0345 12.0047C21.1374 10.5451 21.7873 8.79356 21.9032 6.96774C21.9064 4.49325 20.4524 2.24886 18.1927 1.24031C15.9331 0.231755 13.2915 0.648126 11.4516 2.30284C9.61177 0.648126 6.97016 0.231755 4.71052 1.24031C2.45088 2.24886 0.99686 4.49325 1.00001 6.96774C1.00001 12.8332 10.6364 19.7835 11.0468 20.0769C11.2891 20.2501 11.6148 20.2501 11.8571 20.0769C13.3688 18.9624 14.8087 17.7536 16.1681 16.4578L20.8825 24.624L17.2188 22.5058C15.887 21.7486 14.1937 22.2083 13.4276 23.5351C12.6616 24.8619 13.11 26.5582 14.4317 27.3331L17.0321 28.8339L20.3292 33.0355C20.8642 33.7173 21.5717 34.2436 22.3784 34.56L27.7708 39.3427L29.4563 42.2621C29.5486 42.4222 29.7008 42.539 29.8792 42.5868C29.9381 42.6027 29.9987 42.6106 30.0597 42.6105C30.182 42.6105 30.3021 42.5783 30.4081 42.5172L42.4762 35.5494C42.6369 35.4571 42.7542 35.3046 42.8022 35.1256C42.8502 34.9466 42.8249 34.7558 42.7319 34.5955ZM11.4516 18.6415C9.64001 17.2723 2.39356 11.503 2.39356 6.96774C2.39163 4.93788 3.64832 3.11946 5.54777 2.40362C7.44723 1.68778 9.59148 2.22449 10.9297 3.75074C11.0657 3.89426 11.2546 3.97555 11.4523 3.97555C11.65 3.97555 11.839 3.89426 11.9749 3.75074C13.3134 2.22558 15.4569 1.6896 17.3557 2.4053C19.2545 3.12101 20.511 4.93855 20.5097 6.96774C20.4282 8.28513 19.9932 9.55622 19.2506 10.6474L19.1161 10.4147C18.3465 9.08148 16.6418 8.62462 15.3086 9.39426C13.9754 10.1639 13.5186 11.8686 14.2882 13.2018L15.449 15.2127C14.1838 16.4318 12.8491 17.5766 11.4516 18.6415ZM28.9211 38.5455L30.3147 40.9599L41.1767 34.6917L39.7832 32.2774C39.7456 32.2125 39.719 32.1419 39.7044 32.0683L38.7701 27.5031C38.7314 27.3154 38.7717 27.1201 38.8815 26.9631C39.3198 26.2781 39.3898 25.4204 39.0683 24.6735L37.2838 18.6631C37.1665 18.2743 36.88 17.9592 36.5041 17.8054C36.1785 17.6672 35.8074 17.6859 35.4973 17.8562L35.4841 17.8632L34.2779 18.56C34.1143 18.646 33.9897 18.7913 33.9296 18.9662C33.8829 19.1534 33.9176 19.3516 34.025 19.5118C34.1495 19.7275 34.1494 19.9932 34.0248 20.2088C33.9003 20.4245 33.6701 20.5573 33.4211 20.5572C33.1721 20.5572 32.942 20.4242 32.8175 20.2085L32.1207 19.0017C31.7359 18.3352 30.8837 18.1069 30.2171 18.4917L29.6137 18.8401C29.2812 19.032 29.1666 19.4566 29.3573 19.7898C29.5466 20.1227 29.4317 20.5461 29.1 20.7376C28.7683 20.9291 28.3442 20.817 28.1505 20.4866C27.7657 19.8201 26.9134 19.5917 26.2469 19.9765L25.6435 20.3249C25.4833 20.4173 25.3664 20.5696 25.3186 20.7483C25.2707 20.9269 25.2959 21.1173 25.3885 21.2774C25.5778 21.6104 25.4629 22.0337 25.1312 22.2252C24.7995 22.4167 24.3754 22.3046 24.1817 21.9742L17.9107 11.1122C17.5259 10.4457 16.6736 10.2173 16.0071 10.6021C15.3406 10.9869 15.1123 11.8392 15.4971 12.5057L22.4648 24.5745C22.5572 24.7346 22.5821 24.9249 22.5341 25.1034C22.4862 25.2819 22.3693 25.434 22.2091 25.5263L21.2824 26.0614C21.0668 26.1859 20.8012 26.1859 20.5856 26.0614L16.5234 23.7161C16.3118 23.5931 16.0714 23.5285 15.8267 23.5287C15.7043 23.5289 15.5825 23.545 15.4643 23.5767C14.9198 23.7225 14.5167 24.1819 14.443 24.7408C14.3694 25.2997 14.6396 25.8479 15.1278 26.1297L17.8452 27.6975C17.9221 27.7421 17.9897 27.801 18.0445 27.871L21.4266 32.1777C21.8303 32.6891 22.3694 33.0768 22.9825 33.2968C23.0653 33.3267 23.1417 33.3721 23.2076 33.4305L28.7818 38.3727C28.8373 38.4224 28.8844 38.4808 28.9211 38.5455Z" fill="black"/>
<path d="M41.0464 31.6761L40.8015 31.7262L40.8096 31.7659L40.8299 31.801L41.0464 31.6761ZM42.7319 34.5955L42.5154 34.7205L42.5157 34.721L42.7319 34.5955ZM40.1908 27.4954L39.9722 27.3741L39.9273 27.455L39.9458 27.5455L40.1908 27.4954ZM40.3824 24.215L40.1427 24.286L40.1463 24.2982L40.1511 24.31L40.3824 24.215ZM38.6195 18.2652L38.8592 18.1942L38.8589 18.1929L38.6195 18.2652ZM37.0281 16.5135L36.9319 16.7443L36.9332 16.7448L37.0281 16.5135ZM34.82 16.6369V16.8869H34.8848L34.9414 16.8555L34.82 16.6369ZM34.8008 16.6469L34.6636 16.4379L34.6636 16.4379L34.8008 16.6469ZM34.7866 16.6557L34.6695 16.4346L34.6615 16.4392L34.7866 16.6557ZM33.5805 17.3525L33.7048 17.5693L33.7055 17.5689L33.5805 17.3525ZM32.9896 17.8402L32.8031 18.0067L32.993 18.2193L33.179 18.0034L32.9896 17.8402ZM29.5176 17.2828L29.3926 17.0663L29.3926 17.0663L29.5176 17.2828ZM28.9142 17.6312L29.0383 17.8482L29.0392 17.8477L28.9142 17.6312ZM28.0348 18.6199L27.9365 18.8497L28.1668 18.9483L28.2649 18.7178L28.0348 18.6199ZM27.6621 18.4917L27.5966 18.733L27.5982 18.7334L27.6621 18.4917ZM25.5467 18.7704L25.6717 18.9869L25.6724 18.9865L25.5467 18.7704ZM24.9433 19.1188L25.0676 19.3357L25.0683 19.3353L24.9433 19.1188ZM24.3998 19.5703L24.1832 19.6952L24.3604 20.0023L24.5902 19.7323L24.3998 19.5703ZM20.0345 12.0047L19.835 11.854L19.7352 11.9862L19.8179 12.1297L20.0345 12.0047ZM21.9032 6.96774L22.1527 6.98359L22.1532 6.97583L22.1532 6.96806L21.9032 6.96774ZM18.1927 1.24031L18.2946 1.01201L18.2946 1.01201L18.1927 1.24031ZM11.4516 2.30284L11.2844 2.48872L11.4516 2.63908L11.6188 2.48872L11.4516 2.30284ZM4.71052 1.24031L4.60863 1.01201L4.60863 1.01201L4.71052 1.24031ZM1.00001 6.96774L1.25001 6.96774L1.25001 6.96743L1.00001 6.96774ZM11.0468 20.0769L10.9014 20.2802L10.9014 20.2802L11.0468 20.0769ZM11.8571 20.0769L12.0025 20.2803L12.0055 20.2781L11.8571 20.0769ZM16.1681 16.4578L16.3846 16.3328L16.2257 16.0575L15.9956 16.2768L16.1681 16.4578ZM20.8825 24.624L20.7573 24.8404L21.566 25.308L21.099 24.499L20.8825 24.624ZM17.2188 22.5058L17.344 22.2894L17.3424 22.2885L17.2188 22.5058ZM13.4276 23.5351L13.2111 23.4101L13.2111 23.4101L13.4276 23.5351ZM14.4317 27.3331L14.3053 27.5487L14.3068 27.5496L14.4317 27.3331ZM17.0321 28.8339L17.2288 28.6796L17.1989 28.6416L17.1571 28.6174L17.0321 28.8339ZM20.3292 33.0355L20.5259 32.8811L20.5259 32.8811L20.3292 33.0355ZM22.3784 34.56L22.5443 34.373L22.5111 34.3435L22.4697 34.3273L22.3784 34.56ZM27.7708 39.3427L27.9873 39.2177L27.967 39.1825L27.9367 39.1556L27.7708 39.3427ZM29.4563 42.2621L29.6728 42.1372L29.6728 42.1371L29.4563 42.2621ZM29.8792 42.5868L29.9442 42.3454L29.944 42.3454L29.8792 42.5868ZM30.0597 42.6105L30.0597 42.3605L30.0592 42.3605L30.0597 42.6105ZM30.4081 42.5172L30.2831 42.3007L30.2831 42.3007L30.4081 42.5172ZM42.4762 35.5494L42.3517 35.3326L42.3512 35.3329L42.4762 35.5494ZM2.39356 6.96774L2.64356 6.96774L2.64356 6.96751L2.39356 6.96774ZM11.4516 18.6415L11.3009 18.8409L11.4522 18.9553L11.6031 18.8403L11.4516 18.6415ZM5.54777 2.40362L5.63594 2.63756L5.63594 2.63756L5.54777 2.40362ZM10.9297 3.75074L10.7416 3.91568L10.7482 3.92265L10.9297 3.75074ZM11.9749 3.75074L12.1565 3.92277L12.1628 3.91564L11.9749 3.75074ZM17.3557 2.4053L17.2675 2.63924L17.2675 2.63924L17.3557 2.4053ZM20.5097 6.96774L20.7592 6.98319L20.7597 6.97555L20.7597 6.9679L20.5097 6.96774ZM19.2506 10.6474L19.0342 10.7725L19.2333 11.1172L19.4573 10.7881L19.2506 10.6474ZM19.1161 10.4147L18.8996 10.5397L18.8997 10.5398L19.1161 10.4147ZM15.3086 9.39426L15.4336 9.61077L15.4336 9.61077L15.3086 9.39426ZM14.2882 13.2018L14.5047 13.0768L14.5047 13.0768L14.2882 13.2018ZM15.449 15.2127L15.6225 15.3927L15.7633 15.257L15.6655 15.0877L15.449 15.2127ZM30.3147 40.9599L30.0982 41.0848L30.2231 41.3013L30.4396 41.1764L30.3147 40.9599ZM28.9211 38.5455L28.7037 38.669L28.7046 38.6705L28.9211 38.5455ZM41.1767 34.6917L41.3017 34.9082L41.5182 34.7833L41.3932 34.5667L41.1767 34.6917ZM39.7832 32.2774L39.9997 32.1524L39.9995 32.1521L39.7832 32.2774ZM39.7044 32.0683L39.9497 32.0198L39.9493 32.0182L39.7044 32.0683ZM38.7701 27.5031L39.015 27.4529L39.0149 27.4526L38.7701 27.5031ZM38.8815 26.9631L39.0866 27.1065L39.0921 27.0978L38.8815 26.9631ZM39.0683 24.6735L38.8286 24.7446L38.8328 24.7588L38.8386 24.7723L39.0683 24.6735ZM37.2838 18.6631L37.5235 18.5919L37.5232 18.5908L37.2838 18.6631ZM36.5041 17.8054L36.4065 18.0355L36.4095 18.0367L36.5041 17.8054ZM35.4973 17.8562L35.6138 18.0775L35.6177 18.0754L35.4973 17.8562ZM35.4841 17.8632L35.3675 17.6418L35.359 17.6467L35.4841 17.8632ZM34.2779 18.56L34.3944 18.7814L34.403 18.7764L34.2779 18.56ZM33.9296 18.9662L33.6931 18.8849L33.6896 18.8952L33.687 18.9057L33.9296 18.9662ZM34.025 19.5118L34.2416 19.3868L34.2373 19.3795L34.2326 19.3725L34.025 19.5118ZM34.0248 20.2088L33.8084 20.0838L33.8084 20.0838L34.0248 20.2088ZM33.4211 20.5572L33.4212 20.3072L33.4212 20.3072L33.4211 20.5572ZM32.8175 20.2085L33.034 20.0836L33.034 20.0835L32.8175 20.2085ZM32.1207 19.0017L32.3372 18.8767L32.3372 18.8767L32.1207 19.0017ZM30.2171 18.4917L30.0921 18.2752L30.0921 18.2752L30.2171 18.4917ZM29.6137 18.8401L29.7387 19.0566L29.7387 19.0566L29.6137 18.8401ZM29.3573 19.7898L29.5747 19.6662L29.5743 19.6656L29.3573 19.7898ZM29.1 20.7376L28.975 20.5211L28.975 20.5211L29.1 20.7376ZM28.1505 20.4866L27.934 20.6116L27.9348 20.613L28.1505 20.4866ZM26.2469 19.9765L26.1219 19.76L26.1219 19.76L26.2469 19.9765ZM25.6435 20.3249L25.7684 20.5415L25.7685 20.5414L25.6435 20.3249ZM25.3186 20.7483L25.0771 20.6836L25.0771 20.6836L25.3186 20.7483ZM25.3885 21.2774L25.6058 21.1538L25.6049 21.1522L25.3885 21.2774ZM25.1312 22.2252L25.2562 22.4417L25.2562 22.4417L25.1312 22.2252ZM24.1817 21.9742L23.9652 22.0992L23.966 22.1006L24.1817 21.9742ZM17.9107 11.1122L18.1272 10.9872L18.1272 10.9871L17.9107 11.1122ZM16.0071 10.6021L15.8821 10.3856L15.8821 10.3856L16.0071 10.6021ZM15.4971 12.5057L15.7136 12.3807L15.7136 12.3807L15.4971 12.5057ZM22.4648 24.5745L22.6814 24.4496L22.6813 24.4495L22.4648 24.5745ZM22.5341 25.1034L22.7756 25.1683L22.7756 25.1683L22.5341 25.1034ZM22.2091 25.5263L22.0843 25.3097L22.0841 25.3098L22.2091 25.5263ZM21.2824 26.0614L21.4074 26.278L21.4074 26.2779L21.2824 26.0614ZM20.5856 26.0614L20.4606 26.278L20.4606 26.278L20.5856 26.0614ZM16.5234 23.7161L16.3978 23.9323L16.3984 23.9326L16.5234 23.7161ZM15.8267 23.5287L15.8265 23.2787L15.8262 23.2787L15.8267 23.5287ZM15.4643 23.5767L15.529 23.8182L15.5291 23.8182L15.4643 23.5767ZM14.443 24.7408L14.1952 24.7081L14.1952 24.7081L14.443 24.7408ZM15.1278 26.1297L15.0028 26.3462L15.0029 26.3463L15.1278 26.1297ZM17.8452 27.6975L17.9707 27.4812L17.9702 27.4809L17.8452 27.6975ZM18.0445 27.871L17.8476 28.025L17.8479 28.0254L18.0445 27.871ZM21.4266 32.1777L21.23 32.3321L21.2304 32.3326L21.4266 32.1777ZM22.9825 33.2968L23.0676 33.0617L23.0669 33.0614L22.9825 33.2968ZM23.2076 33.4305L23.3735 33.2435L23.3734 33.2435L23.2076 33.4305ZM28.7818 38.3727L28.9485 38.1864L28.9476 38.1857L28.7818 38.3727ZM40.8299 31.801L42.5154 34.7205L42.9484 34.4705L41.2629 31.5511L40.8299 31.801ZM39.9458 27.5455L40.8015 31.7262L41.2913 31.6259L40.4357 27.4453L39.9458 27.5455ZM40.1511 24.31C40.5601 25.3055 40.4943 26.433 39.9722 27.3741L40.4094 27.6167C41.0052 26.5427 41.0804 25.2561 40.6136 24.12L40.1511 24.31ZM38.3798 18.3363L40.1427 24.286L40.6221 24.144L38.8592 18.1942L38.3798 18.3363ZM36.9332 16.7448C37.6306 17.031 38.1621 17.616 38.3802 18.3376L38.8589 18.1929C38.5972 17.3273 37.9596 16.6255 37.123 16.2823L36.9332 16.7448ZM34.9414 16.8555C35.553 16.5159 36.2863 16.475 36.9319 16.7443L37.1244 16.2828C36.3376 15.9546 35.444 16.0046 34.6987 16.4183L34.9414 16.8555ZM34.9379 16.856C34.9441 16.8519 34.94 16.8548 34.9341 16.8581C34.9308 16.8599 34.9213 16.8651 34.9079 16.8704C34.9009 16.8732 34.8904 16.8769 34.8772 16.8801C34.8644 16.8832 34.8446 16.8869 34.82 16.8869V16.3869C34.773 16.3869 34.7376 16.4001 34.7251 16.405C34.7089 16.4114 34.6964 16.4181 34.6898 16.4218C34.6772 16.4289 34.6653 16.4368 34.6636 16.4379L34.9379 16.856ZM34.9036 16.8766C34.9205 16.8677 34.9358 16.8573 34.938 16.8559L34.6636 16.4379C34.6608 16.4398 34.6606 16.4399 34.6608 16.4398C34.661 16.4396 34.6643 16.4375 34.6696 16.4348L34.9036 16.8766ZM33.7055 17.5689L34.9116 16.8722L34.6615 16.4392L33.4554 17.136L33.7055 17.5689ZM33.179 18.0034C33.3284 17.83 33.5062 17.6832 33.7048 17.5693L33.4561 17.1356C33.2084 17.2776 32.9866 17.4607 32.8002 17.677L33.179 18.0034ZM29.6426 17.4993C30.6833 16.8986 32.0027 17.1104 32.8031 18.0067L33.1761 17.6737C32.2179 16.6008 30.6385 16.3472 29.3926 17.0663L29.6426 17.4993ZM29.0392 17.8477L29.6426 17.4993L29.3926 17.0663L28.7892 17.4147L29.0392 17.8477ZM28.2649 18.7178C28.4209 18.3513 28.6925 18.0459 29.0383 17.8482L28.7901 17.4141C28.3496 17.666 28.0035 18.0551 27.8048 18.522L28.2649 18.7178ZM27.5982 18.7334C27.7137 18.7639 27.8267 18.8028 27.9365 18.8497L28.1332 18.39C28.001 18.3335 27.8649 18.2867 27.7259 18.25L27.5982 18.7334ZM25.6724 18.9865C26.2541 18.648 26.9471 18.5567 27.5966 18.733L27.7276 18.2504C26.949 18.0391 26.1182 18.1485 25.4209 18.5543L25.6724 18.9865ZM25.0683 19.3353L25.6717 18.9869L25.4217 18.5539L24.8183 18.9023L25.0683 19.3353ZM24.5902 19.7323C24.7253 19.5736 24.8868 19.4394 25.0676 19.3357L24.8189 18.9019C24.5881 19.0343 24.3818 19.2056 24.2094 19.4083L24.5902 19.7323ZM19.8179 12.1297L24.1832 19.6952L24.6163 19.4454L20.251 11.8798L19.8179 12.1297ZM21.6537 6.9519C21.5409 8.72883 20.9084 10.4334 19.835 11.854L20.2339 12.1554C21.3664 10.6567 22.0337 8.8583 22.1527 6.98359L21.6537 6.9519ZM18.0908 1.4686C20.2603 2.43689 21.6563 4.5917 21.6532 6.96743L22.1532 6.96806C22.1565 4.3948 20.6445 2.06082 18.2946 1.01201L18.0908 1.4686ZM11.6188 2.48872C13.3852 0.900055 15.9214 0.500304 18.0908 1.4686L18.2946 1.01201C15.9448 -0.0367942 13.1977 0.396196 11.2844 2.11696L11.6188 2.48872ZM4.81242 1.4686C6.98186 0.500304 9.51803 0.900055 11.2844 2.48872L11.6188 2.11696C9.70551 0.396196 6.95846 -0.0367942 4.60863 1.01201L4.81242 1.4686ZM1.25001 6.96743C1.24699 4.5917 2.64297 2.43689 4.81242 1.4686L4.60863 1.01201C2.2588 2.06082 0.746734 4.3948 0.75001 6.96806L1.25001 6.96743ZM11.1922 19.8735C10.9917 19.7301 8.49346 17.929 6.04795 15.4367C4.82511 14.1905 3.62158 12.7777 2.72512 11.3184C1.8269 9.85629 1.25001 8.36865 1.25001 6.96774H0.75001C0.75001 8.49956 1.37767 10.0803 2.29909 11.5801C3.22229 13.0829 4.4535 14.5257 5.69106 15.7869C8.16635 18.3095 10.6915 20.1302 10.9014 20.2802L11.1922 19.8735ZM11.7118 19.8735C11.5564 19.9845 11.3476 19.9845 11.1922 19.8735L10.9014 20.2802C11.2307 20.5156 11.6732 20.5156 12.0025 20.2802L11.7118 19.8735ZM15.9956 16.2768C14.6438 17.5654 13.212 18.7674 11.7088 19.8756L12.0055 20.2781C13.5256 19.1574 14.9735 17.9418 16.3406 16.6388L15.9956 16.2768ZM21.099 24.499L16.3846 16.3328L15.9516 16.5828L20.666 24.749L21.099 24.499ZM17.0937 22.7222L20.7573 24.8404L21.0076 24.4076L17.344 22.2894L17.0937 22.7222ZM13.6441 23.6601C14.3414 22.4523 15.8829 22.0338 17.0953 22.7231L17.3424 22.2885C15.8911 21.4633 14.0459 21.9643 13.2111 23.4101L13.6441 23.6601ZM14.5582 27.1174C13.355 26.4121 12.9468 24.8679 13.6441 23.6601L13.2111 23.4101C12.3763 24.8559 12.8651 26.7044 14.3053 27.5487L14.5582 27.1174ZM17.1571 28.6174L14.5567 27.1165L14.3068 27.5496L16.9071 29.0504L17.1571 28.6174ZM20.5259 32.8811L17.2288 28.6796L16.8354 28.9882L20.1326 33.1898L20.5259 32.8811ZM22.4697 34.3273C21.7044 34.0271 21.0333 33.5279 20.5259 32.8811L20.1325 33.1898C20.695 33.9066 21.4389 34.4601 22.2872 34.7927L22.4697 34.3273ZM27.9367 39.1556L22.5443 34.373L22.2126 34.747L27.6049 39.5297L27.9367 39.1556ZM29.6728 42.1371L27.9873 39.2177L27.5543 39.4677L29.2398 42.3871L29.6728 42.1371ZM29.944 42.3454C29.8296 42.3147 29.732 42.2398 29.6728 42.1372L29.2397 42.3871C29.3652 42.6045 29.5719 42.7633 29.8144 42.8283L29.944 42.3454ZM30.0592 42.3605C30.0204 42.3606 29.9817 42.3555 29.9442 42.3454L29.8142 42.8283C29.8944 42.8498 29.9771 42.8607 30.0601 42.8605L30.0592 42.3605ZM30.2831 42.3007C30.2151 42.3399 30.1381 42.3605 30.0597 42.3605L30.0597 42.8605C30.2259 42.8605 30.3891 42.8168 30.5331 42.7337L30.2831 42.3007ZM42.3512 35.3329L30.2831 42.3007L30.5331 42.7337L42.6012 35.7659L42.3512 35.3329ZM42.5607 35.0609C42.53 35.1757 42.4547 35.2734 42.3517 35.3326L42.6007 35.7662C42.8191 35.6408 42.9785 35.4336 43.0437 35.1903L42.5607 35.0609ZM42.5157 34.721C42.5753 34.8238 42.5915 34.9461 42.5607 35.0609L43.0437 35.1903C43.1089 34.9471 43.0745 34.6879 42.9481 34.4701L42.5157 34.721ZM2.14356 6.96774C2.14356 8.16486 2.62025 9.42109 3.33878 10.6395C4.05902 11.8609 5.03451 13.0649 6.0606 14.1626C8.11289 16.3582 10.3904 18.1528 11.3009 18.8409L11.6024 18.4421C10.7013 17.761 8.44971 15.9864 6.42587 13.8212C5.41389 12.7386 4.46455 11.5643 3.76947 10.3856C3.07267 9.20395 2.64356 8.03828 2.64356 6.96774H2.14356ZM5.45961 2.16968C3.4627 2.92225 2.14153 4.83397 2.14356 6.96798L2.64356 6.96751C2.64173 5.04179 3.83394 3.31667 5.63594 2.63756L5.45961 2.16968ZM11.1177 3.58592C9.71079 1.98136 7.45652 1.41711 5.45961 2.16968L5.63594 2.63756C7.43794 1.95845 9.47217 2.46762 10.7418 3.91556L11.1177 3.58592ZM11.4523 3.72555C11.3233 3.72555 11.2 3.67249 11.1112 3.57882L10.7482 3.92265C10.9314 4.11602 11.186 4.22555 11.4523 4.22555V3.72555ZM11.7934 3.57882C11.7047 3.67249 11.5813 3.72555 11.4523 3.72555V4.22555C11.7187 4.22555 11.9733 4.11602 12.1564 3.92265L11.7934 3.57882ZM17.4439 2.17137C15.4477 1.41894 13.1941 1.98242 11.787 3.58583L12.1628 3.91564C13.4326 2.46873 15.4662 1.96025 17.2675 2.63924L17.4439 2.17137ZM20.7597 6.9679C20.761 4.8346 19.4401 2.9238 17.4439 2.17137L17.2675 2.63924C19.0689 3.31822 20.2609 5.04251 20.2597 6.96759L20.7597 6.9679ZM19.4573 10.7881C20.2252 9.65975 20.6749 8.3454 20.7592 6.98319L20.2602 6.9523C20.1814 8.22486 19.7613 9.4527 19.0439 10.5068L19.4573 10.7881ZM18.8997 10.5398L19.0342 10.7725L19.4671 10.5223L19.3326 10.2896L18.8997 10.5398ZM15.4336 9.61077C16.6472 8.91017 18.199 9.32605 18.8996 10.5397L19.3327 10.2897C18.494 8.83692 16.6364 8.33908 15.1836 9.17775L15.4336 9.61077ZM14.5047 13.0768C13.8041 11.8632 14.22 10.3114 15.4336 9.61077L15.1836 9.17775C13.7308 10.0164 13.233 11.874 14.0717 13.3268L14.5047 13.0768ZM15.6655 15.0877L14.5047 13.0768L14.0717 13.3268L15.2325 15.3377L15.6655 15.0877ZM11.6031 18.8403C13.0083 17.7696 14.3503 16.6185 15.6225 15.3927L15.2756 15.0326C14.0173 16.245 12.6899 17.3836 11.3001 18.4426L11.6031 18.8403ZM30.5312 40.8349L29.1377 38.4206L28.7046 38.6705L30.0982 41.0848L30.5312 40.8349ZM41.0517 34.4752L30.1897 40.7433L30.4396 41.1764L41.3017 34.9082L41.0517 34.4752ZM39.5666 32.4023L40.9602 34.8167L41.3932 34.5667L39.9997 32.1524L39.5666 32.4023ZM39.4592 32.1169C39.4791 32.2174 39.5155 32.314 39.5668 32.4027L39.9995 32.1521C39.9757 32.111 39.9589 32.0663 39.9497 32.0198L39.4592 32.1169ZM38.5251 27.5532L39.4595 32.1185L39.9493 32.0182L39.015 27.4529L38.5251 27.5532ZM38.6767 26.8198C38.5274 27.0331 38.4726 27.2985 38.5252 27.5535L39.0149 27.4526C38.9901 27.3323 39.016 27.207 39.0864 27.1064L38.6767 26.8198ZM38.8386 24.7723C39.1273 25.443 39.0645 26.2133 38.6709 26.8283L39.0921 27.0978C39.5751 26.343 39.6522 25.3977 39.2979 24.5746L38.8386 24.7723ZM37.0442 18.7343L38.8286 24.7446L39.3079 24.6023L37.5235 18.5919L37.0442 18.7343ZM36.4095 18.0367C36.7156 18.162 36.9489 18.4187 37.0445 18.7353L37.5232 18.5908C37.384 18.1299 37.0444 17.7563 36.5988 17.574L36.4095 18.0367ZM35.6177 18.0754C35.8606 17.9419 36.1513 17.9272 36.4065 18.0355L36.6018 17.5752C36.2056 17.4071 35.7542 17.4299 35.3769 17.6371L35.6177 18.0754ZM35.6005 18.0844L35.6137 18.0775L35.3809 17.635L35.3676 17.642L35.6005 18.0844ZM34.403 18.7764L35.6091 18.0797L35.359 17.6467L34.1529 18.3435L34.403 18.7764ZM34.166 19.0475C34.2054 18.9329 34.287 18.8376 34.3943 18.7813L34.1616 18.3387C33.9415 18.4544 33.774 18.6498 33.6931 18.8849L34.166 19.0475ZM34.2326 19.3725C34.1645 19.271 34.1425 19.1453 34.1721 19.0267L33.687 18.9057C33.6232 19.1614 33.6706 19.4322 33.8174 19.651L34.2326 19.3725ZM34.2413 20.3339C34.4106 20.0409 34.4107 19.6799 34.2416 19.3868L33.8085 19.6367C33.8883 19.7751 33.8883 19.9455 33.8084 20.0838L34.2413 20.3339ZM33.421 20.8072C33.7594 20.8073 34.0721 20.6269 34.2413 20.3339L33.8084 20.0838C33.7285 20.2221 33.5809 20.3073 33.4212 20.3072L33.421 20.8072ZM32.601 20.3335C32.7701 20.6266 33.0827 20.8071 33.421 20.8072L33.4212 20.3072C33.2614 20.3072 33.1139 20.2219 33.034 20.0836L32.601 20.3335ZM31.9042 19.1267L32.601 20.3335L33.034 20.0835L32.3372 18.8767L31.9042 19.1267ZM30.3421 18.7082C30.8891 18.3924 31.5884 18.5798 31.9042 19.1267L32.3372 18.8767C31.8834 18.0907 30.8782 17.8214 30.0921 18.2752L30.3421 18.7082ZM29.7387 19.0566L30.3421 18.7082L30.0921 18.2752L29.4887 18.6236L29.7387 19.0566ZM29.5743 19.6656C29.452 19.4519 29.5255 19.1796 29.7387 19.0566L29.4888 18.6235C29.037 18.8843 28.8812 19.4613 29.1404 19.914L29.5743 19.6656ZM29.225 20.9541C29.6757 20.6939 29.8319 20.1186 29.5747 19.6662L29.14 19.9133C29.2614 20.1268 29.1877 20.3983 28.975 20.5211L29.225 20.9541ZM27.9348 20.613C28.198 21.062 28.7743 21.2143 29.225 20.9541L28.975 20.5211C28.7623 20.6439 28.4904 20.572 28.3662 20.3601L27.9348 20.613ZM26.3719 20.193C26.9189 19.8773 27.6182 20.0646 27.934 20.6116L28.367 20.3615C27.9131 19.5755 26.908 19.3062 26.1219 19.76L26.3719 20.193ZM25.7685 20.5414L26.3719 20.193L26.1219 19.76L25.5185 20.1084L25.7685 20.5414ZM25.5601 20.8129C25.5907 20.6984 25.6657 20.6007 25.7684 20.5415L25.5186 20.1083C25.3009 20.2339 25.1421 20.4409 25.0771 20.6836L25.5601 20.8129ZM25.6049 21.1522C25.5455 21.0496 25.5294 20.9275 25.5601 20.8129L25.0771 20.6836C25.0121 20.9264 25.0463 21.185 25.1721 21.4026L25.6049 21.1522ZM25.2562 22.4417C25.7069 22.1815 25.8631 21.6063 25.6058 21.1538L25.1712 21.401C25.2926 21.6145 25.2189 21.8859 25.0062 22.0087L25.2562 22.4417ZM23.966 22.1006C24.2292 22.5496 24.8055 22.7019 25.2562 22.4417L25.0062 22.0087C24.7935 22.1315 24.5216 22.0596 24.3974 21.8477L23.966 22.1006ZM17.6942 11.2372L23.9652 22.0992L24.3982 21.8492L18.1272 10.9872L17.6942 11.2372ZM16.1321 10.8186C16.6791 10.5029 17.3784 10.6902 17.6942 11.2372L18.1272 10.9871C17.6734 10.2011 16.6682 9.93178 15.8821 10.3856L16.1321 10.8186ZM15.7136 12.3807C15.3978 11.8338 15.5852 11.1344 16.1321 10.8186L15.8821 10.3856C15.0961 10.8395 14.8268 11.8446 15.2806 12.6307L15.7136 12.3807ZM22.6813 24.4495L15.7136 12.3807L15.2806 12.6307L22.2483 24.6995L22.6813 24.4495ZM22.7756 25.1683C22.8407 24.9257 22.8069 24.6672 22.6814 24.4496L22.2483 24.6994C22.3075 24.8021 22.3235 24.9241 22.2927 25.0385L22.7756 25.1683ZM22.3339 25.7429C22.5515 25.6175 22.7104 25.4108 22.7756 25.1683L22.2927 25.0385C22.262 25.153 22.187 25.2505 22.0843 25.3097L22.3339 25.7429ZM21.4074 26.2779L22.3341 25.7428L22.0841 25.3098L21.1574 25.8449L21.4074 26.2779ZM20.4606 26.278C20.7536 26.4471 21.1145 26.4471 21.4074 26.278L21.1574 25.8449C21.0192 25.9247 20.8489 25.9247 20.7106 25.8449L20.4606 26.278ZM16.3984 23.9326L20.4606 26.278L20.7106 25.8449L16.6484 23.4996L16.3984 23.9326ZM15.8269 23.7787C16.0274 23.7785 16.2244 23.8315 16.3978 23.9323L16.6491 23.5C16.3992 23.3548 16.1154 23.2784 15.8265 23.2787L15.8269 23.7787ZM15.5291 23.8182C15.6263 23.7921 15.7265 23.7788 15.8271 23.7787L15.8262 23.2787C15.6822 23.2789 15.5387 23.298 15.3996 23.3353L15.5291 23.8182ZM14.6909 24.7735C14.7514 24.3149 15.0821 23.9378 15.529 23.8182L15.3997 23.3352C14.7575 23.5071 14.2821 24.049 14.1952 24.7081L14.6909 24.7735ZM15.2528 25.9132C14.8522 25.6819 14.6304 25.2321 14.6909 24.7735L14.1952 24.7081C14.1083 25.3672 14.4271 26.0138 15.0028 26.3462L15.2528 25.9132ZM17.9702 27.4809L15.2527 25.9132L15.0029 26.3463L17.7203 27.914L17.9702 27.4809ZM18.2414 27.717C18.167 27.6218 18.0751 27.5418 17.9707 27.4812L17.7198 27.9137C17.7691 27.9423 17.8125 27.9801 17.8476 28.025L18.2414 27.717ZM21.6233 32.0233L18.2411 27.7166L17.8479 28.0254L21.23 32.3321L21.6233 32.0233ZM23.0669 33.0614C22.4978 32.8573 21.9975 32.4974 21.6229 32.0228L21.2304 32.3326C21.663 32.8807 22.2409 33.2963 22.8981 33.5321L23.0669 33.0614ZM23.3734 33.2435C23.2839 33.1641 23.1801 33.1024 23.0676 33.0617L22.8975 33.5318C22.9505 33.551 22.9995 33.5801 23.0418 33.6176L23.3734 33.2435ZM28.9476 38.1857L23.3735 33.2435L23.0417 33.6176L28.6159 38.5598L28.9476 38.1857ZM29.1385 38.4221C29.0884 38.3338 29.0242 38.2542 28.9485 38.1864L28.6151 38.5591C28.6504 38.5907 28.6803 38.6278 28.7037 38.669L29.1385 38.4221Z" fill="black"/>
</svg>
