<svg width="38" height="28" viewBox="0 0 38 28" fill="none" xmlns="http://www.w3.org/2000/svg">
<path fill-rule="evenodd" clip-rule="evenodd" d="M2.3398 11.093H1.71189C1.37701 11.093 1.08398 10.8 1.08398 10.4233V7.49302V7.36744L2.38166 0.879065C2.42352 0.586042 2.71654 0.37674 3.00957 0.37674H35.0328C35.3258 0.37674 35.6189 0.586042 35.6607 0.879065L36.9584 7.36744V7.49302V10.4233C36.9584 10.8 36.6654 11.093 36.2886 11.093H35.6607V26.6233C35.6607 27 35.3677 27.293 34.991 27.293H3.00957C2.63282 27.293 2.3398 27 2.3398 26.6233V11.093ZM3.63747 25.9535H34.3631V11.093H32.1026V23.0233C32.1026 23.4 31.8096 23.693 31.4328 23.693H6.56771C6.19096 23.693 5.89794 23.4 5.89794 23.0233V11.093H3.63747V25.9535ZM7.23747 22.3953V11.093H18.3724V22.3953H7.23747ZM19.67 11.093V22.3953H30.8049V11.093H19.67ZM3.55375 1.67441H34.4468L35.4933 6.86511H2.50724L3.55375 1.67441ZM35.6189 8.16279H2.38166V9.79534H3.00957H34.991H35.6189V8.16279Z" fill="black"/>
<path d="M2.3398 11.093H2.5398V10.893H2.3398V11.093ZM1.08398 7.36744L0.887868 7.32821L0.883984 7.34763V7.36744H1.08398ZM2.38166 0.879065L2.57808 0.918349L2.57965 0.907349L2.38166 0.879065ZM35.6607 0.879065L35.4624 0.907392L35.4646 0.918288L35.6607 0.879065ZM36.9584 7.36744H37.1584V7.34763L37.1545 7.32821L36.9584 7.36744ZM35.6607 11.093V10.893H35.4607V11.093H35.6607ZM34.3631 25.9535V26.1535H34.5631V25.9535H34.3631ZM3.63747 25.9535H3.43747V26.1535H3.63747V25.9535ZM34.3631 11.093H34.5631V10.893H34.3631V11.093ZM32.1026 11.093V10.893H31.9026V11.093H32.1026ZM5.89794 11.093H6.09794V10.893H5.89794V11.093ZM3.63747 11.093V10.893H3.43747V11.093H3.63747ZM7.23747 11.093V10.893H7.03747V11.093H7.23747ZM7.23747 22.3953H7.03747V22.5953H7.23747V22.3953ZM18.3724 11.093H18.5724V10.893H18.3724V11.093ZM18.3724 22.3953V22.5953H18.5724V22.3953H18.3724ZM19.67 22.3953H19.47V22.5953H19.67V22.3953ZM19.67 11.093V10.893H19.47V11.093H19.67ZM30.8049 22.3953V22.5953H31.0049V22.3953H30.8049ZM30.8049 11.093H31.0049V10.893H30.8049V11.093ZM34.4468 1.67441L34.6428 1.63489L34.6105 1.47441H34.4468V1.67441ZM3.55375 1.67441V1.47441H3.39005L3.3577 1.63489L3.55375 1.67441ZM35.4933 6.86511V7.06511H35.7376L35.6893 6.82558L35.4933 6.86511ZM2.50724 6.86511L2.31119 6.82558L2.26289 7.06511H2.50724V6.86511ZM2.38166 8.16279V7.96279H2.18166V8.16279H2.38166ZM35.6189 8.16279H35.8189V7.96279H35.6189V8.16279ZM2.38166 9.79534H2.18166V9.99534H2.38166V9.79534ZM35.6189 9.79534V9.99534H35.8189V9.79534H35.6189ZM1.71189 11.293H2.3398V10.893H1.71189V11.293ZM0.883984 10.4233C0.883984 10.902 1.25827 11.293 1.71189 11.293V10.893C1.49575 10.893 1.28398 10.698 1.28398 10.4233H0.883984ZM0.883984 7.49302V10.4233H1.28398V7.49302H0.883984ZM0.883984 7.36744V7.49302H1.28398V7.36744H0.883984ZM2.18554 0.839842L0.887868 7.32821L1.2801 7.40666L2.57777 0.918288L2.18554 0.839842ZM3.00957 0.176739C2.63762 0.176739 2.24234 0.440118 2.18367 0.850781L2.57965 0.907349C2.6047 0.731966 2.79547 0.57674 3.00957 0.57674V0.176739ZM35.0328 0.176739H3.00957V0.57674H35.0328V0.176739ZM35.8587 0.850782C35.8001 0.440117 35.4048 0.176739 35.0328 0.176739V0.57674C35.2469 0.57674 35.4377 0.731967 35.4627 0.907348L35.8587 0.850782ZM37.1545 7.32821L35.8568 0.839842L35.4646 0.918288L36.7623 7.40666L37.1545 7.32821ZM37.1584 7.49302V7.36744H36.7584V7.49302H37.1584ZM37.1584 10.4233V7.49302H36.7584V10.4233H37.1584ZM36.2886 11.293C36.7758 11.293 37.1584 10.9105 37.1584 10.4233H36.7584C36.7584 10.6895 36.5549 10.893 36.2886 10.893V11.293ZM35.6607 11.293H36.2886V10.893H35.6607V11.293ZM35.8607 26.6233V11.093H35.4607V26.6233H35.8607ZM34.991 27.493C35.4782 27.493 35.8607 27.1105 35.8607 26.6233H35.4607C35.4607 26.8895 35.2572 27.093 34.991 27.093V27.493ZM3.00957 27.493H34.991V27.093H3.00957V27.493ZM2.1398 26.6233C2.1398 27.1105 2.52236 27.493 3.00957 27.493V27.093C2.74328 27.093 2.5398 26.8895 2.5398 26.6233H2.1398ZM2.1398 11.093V26.6233H2.5398V11.093H2.1398ZM34.3631 25.7535H3.63747V26.1535H34.3631V25.7535ZM34.1631 11.093V25.9535H34.5631V11.093H34.1631ZM32.1026 11.293H34.3631V10.893H32.1026V11.293ZM32.3026 23.0233V11.093H31.9026V23.0233H32.3026ZM31.4328 23.893C31.92 23.893 32.3026 23.5105 32.3026 23.0233H31.9026C31.9026 23.2895 31.6991 23.493 31.4328 23.493V23.893ZM6.56771 23.893H31.4328V23.493H6.56771V23.893ZM5.69794 23.0233C5.69794 23.5105 6.0805 23.893 6.56771 23.893V23.493C6.30142 23.493 6.09794 23.2895 6.09794 23.0233H5.69794ZM5.69794 11.093V23.0233H6.09794V11.093H5.69794ZM3.63747 11.293H5.89794V10.893H3.63747V11.293ZM3.83747 25.9535V11.093H3.43747V25.9535H3.83747ZM7.03747 11.093V22.3953H7.43747V11.093H7.03747ZM18.3724 10.893H7.23747V11.293H18.3724V10.893ZM18.5724 22.3953V11.093H18.1724V22.3953H18.5724ZM7.23747 22.5953H18.3724V22.1953H7.23747V22.5953ZM19.87 22.3953V11.093H19.47V22.3953H19.87ZM30.8049 22.1953H19.67V22.5953H30.8049V22.1953ZM30.6049 11.093V22.3953H31.0049V11.093H30.6049ZM19.67 11.293H30.8049V10.893H19.67V11.293ZM34.4468 1.47441H3.55375V1.87441H34.4468V1.47441ZM35.6893 6.82558L34.6428 1.63489L34.2507 1.71394L35.2972 6.90464L35.6893 6.82558ZM2.50724 7.06511H35.4933V6.66511H2.50724V7.06511ZM3.3577 1.63489L2.31119 6.82558L2.7033 6.90464L3.74981 1.71394L3.3577 1.63489ZM2.38166 8.36279H35.6189V7.96279H2.38166V8.36279ZM2.58166 9.79534V8.16279H2.18166V9.79534H2.58166ZM3.00957 9.59534H2.38166V9.99534H3.00957V9.59534ZM34.991 9.59534H3.00957V9.99534H34.991V9.59534ZM35.6189 9.59534H34.991V9.99534H35.6189V9.59534ZM35.4189 8.16279V9.79534H35.8189V8.16279H35.4189Z" fill="black"/>
</svg>
